<?xml version="1.0" standalone="no"?>
<!DOCTYPE svg PUBLIC "-//W3C//DTD SVG 20010904//EN"
 "http://www.w3.org/TR/2001/REC-SVG-20010904/DTD/svg10.dtd">
<svg version="1.0" xmlns="http://www.w3.org/2000/svg"
 width="1024.000000pt" height="1024.000000pt" viewBox="0 0 1024.000000 1024.000000"
 preserveAspectRatio="xMidYMid meet">

<g transform="translate(0.000000,1024.000000) scale(0.100000,-0.100000)"
fill="#000000" stroke="none">
<path d="M4723 8943 c59 -2 155 -2 215 0 59 1 10 3 -108 3 -118 0 -167 -2
-107 -3z"/>
<path d="M4425 8930 c-29 -5 -7 -6 55 -3 58 3 107 7 109 9 7 6 -110 2 -164 -6z"/>
<path d="M5088 8933 c18 -2 45 -2 60 0 15 2 0 4 -33 4 -33 0 -45 -2 -27 -4z"/>
<path d="M5198 8923 c12 -2 32 -2 45 0 12 2 2 4 -23 4 -25 0 -35 -2 -22 -4z"/>
<path d="M4313 8913 c9 -2 25 -2 35 0 9 3 1 5 -18 5 -19 0 -27 -2 -17 -5z"/>
<path d="M5293 8913 c9 -2 25 -2 35 0 9 3 1 5 -18 5 -19 0 -27 -2 -17 -5z"/>
<path d="M4243 8903 c9 -2 25 -2 35 0 9 3 1 5 -18 5 -19 0 -27 -2 -17 -5z"/>
<path d="M5363 8903 c9 -2 25 -2 35 0 9 3 1 5 -18 5 -19 0 -27 -2 -17 -5z"/>
<path d="M4105 8885 c-307 -56 -672 -178 -946 -316 -221 -110 -479 -266 -479
-289 0 -5 15 -26 33 -47 17 -22 61 -83 97 -136 36 -53 71 -96 79 -97 8 0 53
25 99 56 337 224 811 411 1242 488 74 13 126 25 114 25 -65 3 -339 -58 -539
-120 -301 -94 -577 -223 -829 -388 -43 -28 -81 -51 -85 -51 -3 0 -39 49 -80
108 -41 59 -86 119 -99 134 -14 15 -24 29 -21 32 20 17 146 97 244 154 372
215 727 348 1175 437 63 13 104 23 90 23 -14 0 -56 -6 -95 -13z"/>
<path d="M5428 8893 c6 -2 18 -2 25 0 6 3 1 5 -13 5 -14 0 -19 -2 -12 -5z"/>
<path d="M5510 8879 c163 -37 264 -58 267 -55 6 6 -203 53 -262 60 l-50 5 45
-10z"/>
<path d="M5798 8813 c7 -3 16 -2 19 1 4 3 -2 6 -13 5 -11 0 -14 -3 -6 -6z"/>
<path d="M5915 8780 c50 -16 94 -28 100 -26 5 1 -22 12 -60 24 -112 33 -138
35 -40 2z"/>
<path d="M6065 8733 c243 -95 341 -137 465 -198 143 -71 334 -182 394 -228
l30 -24 -87 -119 c-48 -65 -94 -128 -102 -138 -14 -19 -16 -18 -62 12 -350
226 -756 399 -1133 482 -125 28 -396 70 -440 69 -19 -1 26 -9 100 -20 294 -40
522 -96 775 -192 249 -93 473 -205 659 -329 48 -33 89 -58 90 -56 1 2 27 37
57 78 31 41 79 108 107 148 l52 72 -82 53 c-231 149 -498 281 -759 376 -87 32
-137 43 -64 14z"/>
<path d="M4830 8600 c36 -4 110 -7 165 -7 l100 0 -100 7 c-55 4 -129 7 -165 7
l-65 0 65 -7z"/>
<path d="M4481 8589 c-52 -5 -99 -11 -105 -14 -6 -3 27 -2 74 1 47 4 135 10
195 14 l110 7 -90 0 c-49 0 -132 -4 -184 -8z"/>
<path d="M4743 8353 c48 -2 125 -2 170 0 45 1 6 3 -88 3 -93 0 -130 -2 -82 -3z"/>
<path d="M4537 8343 c18 -2 50 -2 70 0 21 2 7 4 -32 4 -38 0 -55 -2 -38 -4z"/>
<path d="M5038 8343 c17 -2 47 -2 65 0 17 2 3 4 -33 4 -36 0 -50 -2 -32 -4z"/>
<path d="M4292 8318 c-68 -11 -121 -23 -118 -25 2 -2 64 5 138 16 73 11 147
22 163 24 19 3 13 4 -15 5 -25 0 -100 -9 -168 -20z"/>
<path d="M5168 8333 c12 -2 30 -2 40 0 9 3 -1 5 -23 4 -22 0 -30 -2 -17 -4z"/>
<path d="M5248 8323 c12 -2 30 -2 40 0 9 3 -1 5 -23 4 -22 0 -30 -2 -17 -4z"/>
<path d="M5311 8316 c2 -2 31 -6 64 -9 39 -4 50 -3 30 2 -31 9 -102 14 -94 7z"/>
<path d="M5445 8295 c17 -8 158 -35 162 -31 2 2 -16 8 -39 14 -48 11 -138 24
-123 17z"/>
<path d="M4015 8260 c-208 -54 -471 -152 -665 -248 -131 -65 -267 -144 -312
-182 l-30 -26 24 -29 c14 -17 83 -120 155 -230 71 -110 200 -306 285 -435 199
-302 269 -409 470 -720 201 -310 290 -448 423 -650 55 -85 179 -275 275 -422
96 -147 176 -266 178 -264 2 3 -5 17 -15 33 -27 38 -108 164 -244 373 -62 96
-192 297 -289 445 -97 149 -242 371 -322 495 -80 124 -207 320 -283 435 -75
116 -194 297 -264 403 -69 106 -181 276 -248 378 -68 102 -123 189 -123 193 0
21 237 156 420 239 172 79 394 157 590 208 69 18 116 32 105 32 -11 0 -69 -12
-130 -28z"/>
<path d="M5730 8226 c63 -19 135 -42 159 -50 24 -9 46 -14 49 -12 5 6 -237 83
-285 91 -21 3 14 -10 77 -29z"/>
<path d="M5951 8156 c9 -9 132 -57 136 -52 4 3 -23 15 -122 52 -11 4 -17 4
-14 0z"/>
<path d="M7015 8028 c-55 -73 -103 -138 -107 -144 -5 -7 32 -45 98 -100 135
-113 359 -344 456 -471 353 -462 575 -975 673 -1553 13 -74 23 -123 24 -109 3
72 -52 329 -123 576 -170 591 -569 1195 -1049 1587 -37 30 -68 58 -69 62 -1 3
41 63 93 131 52 69 97 130 101 136 8 13 248 -194 365 -317 527 -550 867 -1217
987 -1933 38 -224 47 -318 56 -558 l8 -220 -3 235 c-6 358 -49 631 -155 986
-178 593 -497 1115 -957 1565 -104 103 -281 259 -293 259 -3 0 -50 -60 -105
-132z"/>
<path d="M2412 8073 c-404 -358 -715 -760 -916 -1184 -30 -63 -64 -139 -76
-169 -110 -277 -140 -368 -191 -571 -33 -135 -79 -406 -78 -459 0 -19 11 35
24 120 57 381 161 718 333 1080 112 237 284 503 461 715 104 124 358 382 464
471 48 41 83 74 77 74 -6 0 -50 -35 -98 -77z"/>
<path d="M2530 8142 c0 -5 31 -52 68 -103 38 -52 83 -114 100 -138 18 -25 32
-41 32 -37 0 5 -45 72 -100 148 -55 77 -100 136 -100 130z"/>
<path d="M6290 8002 c191 -95 288 -151 323 -186 9 -10 17 -13 17 -7 0 19 -137
102 -329 198 -101 51 -189 93 -195 93 -6 0 77 -44 184 -98z"/>
<path d="M2645 7809 c-168 -142 -380 -376 -561 -619 -156 -210 -369 -638 -462
-931 -75 -234 -143 -614 -140 -779 1 -68 2 -64 9 40 41 553 235 1109 557 1598
104 159 254 335 458 540 112 111 202 202 201 202 -1 -1 -29 -24 -62 -51z"/>
<path d="M3866 7767 c-46 -26 -76 -78 -75 -127 1 -34 2 -34 8 8 14 83 80 137
160 129 126 -13 166 -192 58 -257 -39 -24 -97 -26 -138 -4 -17 8 -33 13 -35
11 -3 -2 12 -12 32 -22 25 -12 52 -16 84 -13 82 8 130 62 130 145 0 121 -119
190 -224 130z"/>
<path d="M4393 7658 l-132 -133 115 -130 c63 -71 124 -138 134 -149 17 -18 22
-14 156 124 77 78 139 146 139 151 0 12 -255 269 -268 269 -6 0 -70 -60 -144
-132z m281 -9 c70 -72 126 -132 124 -134 -2 -2 -63 -64 -136 -139 l-134 -134
-47 51 c-27 29 -84 92 -128 142 l-81 89 130 128 c71 70 133 128 137 128 5 0
66 -59 135 -131z"/>
<path d="M5569 7766 c-75 -41 -120 -117 -118 -200 2 -38 2 -37 9 14 8 64 27
104 67 142 84 80 203 76 297 -11 21 -19 25 -21 16 -6 -46 77 -183 108 -271 61z"/>
<path d="M6452 7550 c-86 -132 -182 -279 -213 -327 -252 -393 -438 -681 -559
-868 -79 -121 -205 -317 -280 -435 -75 -118 -171 -267 -212 -330 -41 -63 -110
-171 -154 -238 -43 -68 -96 -149 -116 -180 -41 -62 -80 -132 -75 -132 2 0 17
21 34 48 112 171 384 596 481 747 63 99 209 326 325 505 264 410 256 397 367
570 192 299 386 599 470 725 102 153 103 155 95 155 -3 0 -76 -108 -163 -240z"/>
<path d="M2678 7547 c-163 -162 -264 -279 -378 -437 -147 -206 -313 -500 -388
-691 -43 -108 -95 -269 -89 -275 3 -3 15 28 27 68 111 368 364 808 650 1133
148 168 333 348 343 334 8 -11 251 -381 381 -579 81 -124 236 -360 344 -525
243 -370 474 -723 612 -938 229 -355 363 -558 374 -564 6 -4 4 4 -5 17 -9 14
-111 169 -225 345 -114 176 -262 403 -329 505 -67 102 -157 240 -200 307 -44
68 -192 294 -330 503 -137 208 -333 506 -434 660 -101 154 -190 280 -197 280
-7 0 -77 -64 -156 -143z"/>
<path d="M6867 7622 c193 -170 427 -435 558 -633 217 -325 358 -660 460 -1089
14 -58 23 -85 20 -60 -9 75 -62 279 -108 416 -140 418 -373 806 -680 1134 -92
98 -306 300 -320 300 -4 0 28 -31 70 -68z"/>
<path d="M5850 7680 c0 -3 7 -23 16 -45 l15 -40 -6 35 c-3 19 -10 39 -15 44
-6 6 -10 8 -10 6z"/>
<path d="M6698 7540 c-45 -72 -141 -219 -212 -328 -125 -191 -190 -292 -576
-892 -316 -492 -663 -1028 -701 -1082 -10 -15 -19 -30 -19 -33 0 -3 -17 -32
-38 -63 -21 -31 -42 -64 -47 -72 -7 -13 -6 -13 7 0 8 8 61 87 117 175 56 88
158 246 226 350 68 105 142 219 164 255 68 107 438 683 722 1120 110 170 435
675 443 688 4 6 5 12 2 12 -2 0 -42 -59 -88 -130z"/>
<path d="M3800 7593 c0 -6 9 -21 21 -34 l20 -24 -17 30 c-24 39 -24 40 -24 28z"/>
<path d="M5882 7570 c0 -14 2 -19 5 -12 2 6 2 18 0 25 -3 6 -5 1 -5 -13z"/>
<path d="M5870 7524 c0 -38 -56 -110 -102 -133 -52 -25 -132 -28 -181 -7 -37
16 -95 74 -114 114 -12 25 -12 26 -7 2 3 -14 18 -41 33 -60 82 -104 250 -108
338 -7 30 34 51 92 39 104 -3 4 -6 -3 -6 -13z"/>
<path d="M6765 6768 c-115 -110 -211 -206 -213 -212 -4 -17 66 -80 123 -110
28 -15 42 -21 31 -14 -83 58 -138 101 -142 112 -3 8 19 36 53 67 32 30 126
120 208 200 83 81 157 149 165 152 13 5 13 5 0 6 -8 0 -109 -91 -225 -201z"/>
<path d="M7076 6894 c89 -89 138 -163 181 -271 51 -128 51 -129 -32 -174 -38
-21 -100 -45 -137 -54 -94 -21 -229 -19 -298 5 -66 23 -77 19 -18 -5 69 -29
226 -32 327 -6 80 20 197 80 207 106 7 18 -33 129 -79 218 -39 76 -155 215
-200 239 -11 6 11 -20 49 -58z"/>
<path d="M2685 6928 c-16 -6 -42 -20 -58 -30 -27 -19 -67 -85 -67 -110 0 -7 9
5 19 27 64 142 248 150 317 15 29 -55 32 -42 4 15 -36 74 -134 112 -215 83z"/>
<path d="M5100 6881 c68 -8 96 -25 121 -73 62 -121 -52 -244 -175 -189 -101
44 -117 172 -30 240 15 12 21 21 14 21 -6 0 -25 -14 -41 -31 -101 -109 8 -288
153 -249 110 30 144 161 64 248 -31 33 -38 36 -97 38 l-64 2 55 -7z"/>
<path d="M2917 6734 c-18 -124 -134 -195 -244 -149 -66 28 -97 69 -113 148 -7
37 -8 38 -9 11 -1 -16 11 -53 25 -81 20 -42 35 -57 77 -77 87 -44 165 -31 224
37 35 40 57 99 51 137 -2 17 -6 8 -11 -26z"/>
<path d="M4543 6409 c-80 -39 -127 -149 -103 -239 12 -46 60 -98 112 -123 65
-31 169 -16 221 31 22 19 57 85 57 104 0 7 -9 -5 -19 -27 -23 -52 -81 -102
-126 -111 -88 -16 -157 11 -213 83 -23 31 -27 46 -26 97 1 88 34 141 111 180
106 53 241 -23 269 -152 10 -47 12 -51 13 -22 2 140 -168 243 -296 179z"/>
<path d="M2242 6239 c-61 -31 -85 -70 -90 -145 -3 -50 0 -70 17 -101 30 -52
76 -82 136 -88 l50 -4 -50 10 c-94 19 -145 79 -145 169 0 62 18 100 66 137 30
22 47 27 95 28 65 0 98 -18 137 -75 26 -39 30 -125 7 -169 -17 -35 -70 -81
-93 -82 -11 0 -13 -2 -4 -6 22 -8 88 43 107 84 24 49 24 117 0 166 -39 83
-150 119 -233 76z"/>
<path d="M3175 6183 c95 -7 213 -7 208 0 -2 4 -59 6 -126 5 -67 -1 -104 -3
-82 -5z"/>
<path d="M3115 6035 l0 -140 138 0 137 -1 -135 3 -134 4 -4 137 -3 137 1 -140z"/>
<path d="M3394 6035 c0 -71 1 -99 3 -62 2 37 2 96 0 130 -2 34 -3 4 -3 -68z"/>
<path d="M1787 6023 c-35 -147 -67 -330 -66 -373 2 -33 2 -33 6 -5 13 99 48
285 69 374 14 57 23 105 21 107 -2 3 -16 -44 -30 -103z"/>
<path d="M6994 5967 c11 -33 77 -126 108 -152 59 -49 109 -68 193 -73 44 -2
95 0 113 4 23 7 3 9 -75 9 -92 0 -115 3 -154 23 -58 29 -102 71 -152 147 -21
33 -36 52 -33 42z"/>
<path d="M6866 5921 c-32 -27 -80 -79 -108 -115 -48 -65 -49 -68 -34 -91 19
-29 32 -34 14 -6 -19 31 7 75 103 172 48 49 86 89 85 89 -1 0 -28 -22 -60 -49z"/>
<path d="M7912 5765 c0 -16 2 -22 5 -12 2 9 2 23 0 30 -3 6 -5 -1 -5 -18z"/>
<path d="M7458 5763 c11 -4 102 -183 102 -199 0 -11 -116 -61 -185 -80 -91
-26 -84 -32 9 -8 65 17 186 73 186 86 0 4 -21 53 -46 108 -32 68 -52 100 -63
99 -12 0 -12 -2 -3 -6z"/>
<path d="M7921 5715 c0 -11 4 -51 10 -90 6 -38 15 -178 19 -310 l8 -240 -4
255 c-2 160 -9 283 -18 330 -7 41 -14 66 -15 55z"/>
<path d="M6769 5651 c82 -114 281 -202 451 -199 l75 1 -95 7 c-52 4 -115 13
-140 20 -87 24 -191 83 -254 145 -37 36 -51 46 -37 26z"/>
<path d="M6032 5663 c-36 -7 -89 -64 -101 -111 -28 -102 48 -194 157 -191 32
1 30 3 -16 9 -91 14 -134 57 -135 138 -2 154 198 208 268 72 34 -65 11 -154
-48 -190 -18 -11 -26 -20 -19 -20 7 0 29 15 50 34 36 34 37 36 37 105 0 64 -3
72 -30 102 -47 50 -94 65 -163 52z"/>
<path d="M1143 5600 c0 -30 2 -43 4 -27 2 15 2 39 0 55 -2 15 -4 2 -4 -28z"/>
<path d="M2458 5643 l182 -3 0 -190 0 -190 -157 -2 -158 -2 154 -3 c94 -2 158
0 164 6 12 12 15 360 4 379 -6 9 -53 11 -190 10 l-182 -3 183 -2z"/>
<path d="M2274 5455 c0 -99 2 -138 3 -87 2 51 2 132 0 180 -1 48 -3 6 -3 -93z"/>
<path d="M8168 5455 c3 -93 6 -172 8 -174 7 -8 2 212 -6 279 -4 37 -5 -7 -2
-105z"/>
<path d="M1713 5565 c0 -27 2 -38 4 -22 2 15 2 37 0 50 -2 12 -4 0 -4 -28z"/>
<path d="M3541 5571 c-10 -6 1 -8 30 -4 24 3 46 7 48 9 10 9 -65 3 -78 -5z"/>
<path d="M3657 5550 c36 -22 60 -62 73 -123 l9 -42 -3 48 c-4 53 -37 110 -74
126 -37 17 -40 13 -5 -9z"/>
<path d="M3482 5537 c-26 -27 -52 -88 -52 -119 0 -13 9 -42 19 -65 24 -52 80
-84 143 -82 l43 2 -50 6 c-59 8 -86 21 -114 56 -43 56 -34 140 20 194 17 17
26 31 22 31 -5 0 -19 -10 -31 -23z"/>
<path d="M1134 5300 c0 -124 2 -174 3 -112 2 61 2 163 0 225 -1 61 -3 11 -3
-113z"/>
<path d="M1704 5330 c0 -102 2 -143 3 -92 2 50 2 134 0 185 -1 50 -3 9 -3 -93z"/>
<path d="M1474 5295 c0 -55 1 -76 3 -47 2 29 2 74 0 100 -2 26 -3 2 -3 -53z"/>
<path d="M3720 5364 c0 -9 -16 -32 -36 -50 -19 -19 -31 -34 -26 -34 15 0 72
68 72 85 0 8 -2 15 -5 15 -3 0 -5 -7 -5 -16z"/>
<path d="M8173 5150 c0 -47 2 -66 4 -42 2 23 2 61 0 85 -2 23 -4 4 -4 -43z"/>
<path d="M1480 5099 l0 -70 -174 3 c-96 2 -172 0 -169 -4 2 -5 83 -8 179 -8
l174 0 0 75 c0 41 -2 75 -5 75 -3 0 -5 -32 -5 -71z"/>
<path d="M1714 5075 l1 -50 1433 0 1432 0 -1429 2 -1430 3 -4 48 -4 47 1 -50z"/>
<path d="M8510 5055 l0 -25 -169 0 c-153 0 -170 2 -174 18 -4 13 -5 11 -6 -5
l-1 -23 180 0 180 0 0 30 c0 17 -2 30 -5 30 -3 0 -5 -11 -5 -25z"/>
<path d="M5087 5043 c-4 -3 -7 -10 -7 -15 0 -4 646 -8 1435 -8 1360 0 1435 1
1434 18 0 10 -3 12 -6 5 -4 -10 -299 -13 -1429 -13 -948 0 -1423 3 -1419 10 7
11 2 13 -8 3z"/>
<path d="M1155 4768 c118 -740 398 -1383 838 -1930 143 -178 380 -417 564
-570 92 -77 327 -248 340 -248 4 0 -22 21 -58 47 -334 244 -526 417 -760 683
-439 500 -753 1162 -884 1865 -14 77 -28 150 -31 163 l-4 22 168 0 168 0 13
-77 c22 -133 98 -423 156 -592 175 -514 406 -901 771 -1288 170 -181 375 -358
582 -502 34 -24 62 -45 62 -47 0 -2 -26 -43 -58 -91 -81 -121 -112 -171 -112
-180 0 -5 41 53 90 127 49 74 90 138 90 141 0 3 -66 55 -147 116 -465 347
-834 775 -1067 1242 -153 304 -262 625 -339 996 l-34 160 -177 3 -178 2 7 -42z"/>
<path d="M1720 4788 c0 -37 26 -162 65 -310 140 -540 368 -993 681 -1353 111
-127 261 -280 365 -371 99 -86 357 -284 371 -284 4 0 18 17 31 38 58 91 376
605 487 787 103 167 179 291 291 474 30 48 94 149 165 263 39 62 129 205 199
318 71 113 162 258 202 323 41 64 71 122 68 127 -4 7 -526 10 -1466 10 l-1459
0 0 -22z m2908 -10 c-8 -13 -82 -132 -164 -265 -144 -235 -205 -331 -328 -525
-32 -51 -166 -268 -298 -483 -132 -214 -270 -437 -306 -495 -96 -153 -187
-301 -259 -419 -34 -57 -65 -106 -67 -108 -12 -13 -287 201 -423 329 -230 216
-399 412 -540 623 -55 83 -78 122 -145 245 -68 124 -190 418 -243 587 -34 111
-111 418 -120 481 l-7 52 1457 0 1457 0 -14 -22z"/>
<path d="M3090 4420 c-52 -20 -121 -49 -152 -63 l-57 -25 35 -89 c93 -234 94
-236 131 -214 15 10 14 10 -8 5 -23 -5 -27 0 -52 58 -64 156 -90 229 -81 237
10 9 174 79 236 102 24 8 41 9 47 4 17 -18 104 -240 105 -268 1 -26 -5 -31
-59 -53 -33 -14 -73 -31 -90 -39 -16 -7 -40 -16 -53 -20 -13 -4 -21 -9 -19
-12 6 -5 227 83 240 96 5 5 -11 56 -36 117 -25 60 -50 126 -56 146 -19 59 -26
60 -131 18z"/>
<path d="M2333 4391 c-70 -32 -94 -116 -55 -191 35 -66 133 -90 200 -50 89 54
77 192 -21 239 -53 26 -70 26 -124 2z m135 -18 c41 -25 64 -73 59 -123 -4 -35
-12 -51 -42 -78 -35 -32 -41 -34 -92 -30 -45 4 -60 11 -86 37 -29 28 -32 37
-32 90 0 65 13 88 68 115 36 17 87 13 125 -11z"/>
<path d="M2534 3771 c-72 -44 -101 -133 -70 -214 9 -23 29 -51 44 -61 l27 -19
-26 29 c-69 79 -66 166 10 238 25 24 42 31 98 36 l68 7 -60 2 c-43 1 -69 -4
-91 -18z"/>
<path d="M2724 3748 c21 -17 47 -50 57 -72 21 -47 26 -32 5 17 -14 34 -69 87
-89 87 -6 0 6 -14 27 -32z"/>
<path d="M3162 3644 c-18 -14 -39 -39 -47 -54 -20 -39 -19 -107 3 -150 18 -36
73 -80 101 -80 9 0 -2 9 -25 20 -76 38 -105 131 -65 208 25 49 67 72 129 72
68 0 112 -30 135 -95 l18 -50 -5 40 c-4 30 -15 49 -45 78 -38 35 -44 37 -103
37 -52 0 -68 -5 -96 -26z"/>
<path d="M2791 3594 c-1 -41 -38 -93 -81 -115 -39 -21 -104 -25 -147 -8 -21 8
-25 7 -17 -1 16 -16 85 -24 129 -16 66 13 133 93 122 148 -3 19 -5 17 -6 -8z"/>
<path d="M3401 3490 c-2 -42 -39 -90 -84 -110 -24 -11 -34 -20 -23 -20 47 0
122 88 113 133 -4 20 -4 20 -6 -3z"/>
<path d="M4955 4554 c96 -141 156 -222 129 -174 -4 8 -43 67 -87 130 -43 63
-90 132 -105 153 -14 21 -30 41 -35 44 -6 3 39 -66 98 -153z"/>
<path d="M4783 4628 c-28 -40 -70 -107 -95 -148 -24 -41 -53 -88 -64 -105 -10
-16 -14 -26 -7 -22 6 4 37 51 69 104 32 54 76 125 99 158 47 68 58 85 52 85
-2 0 -26 -33 -54 -72z"/>
<path d="M6000 4521 c0 -5 75 -130 166 -278 159 -256 447 -723 819 -1328 298
-484 608 -965 621 -965 6 0 14 -12 -146 232 -149 229 -346 541 -509 808 -127
209 -420 684 -515 838 -56 89 -174 281 -263 425 l-162 262 780 3 c429 1 1128
1 1553 0 l772 -3 -28 -180 c-31 -204 -88 -442 -153 -643 -24 -75 -42 -138 -40
-140 7 -7 96 280 134 435 21 87 51 235 65 328 15 94 29 180 32 193 l4 22
-1565 0 c-935 0 -1565 -4 -1565 -9z"/>
<path d="M9317 4523 c-4 -3 -7 -27 -7 -51 0 -68 -47 -361 -79 -492 -36 -147
-91 -332 -130 -439 -17 -47 -29 -86 -27 -88 14 -14 150 430 185 603 29 143 61
360 61 417 l0 47 156 0 156 0 -6 -52 c-3 -29 -8 -82 -10 -118 -5 -59 -4 -61 3
-18 5 26 12 81 16 123 l7 75 -159 0 c-88 0 -163 -3 -166 -7z"/>
<path d="M5095 4350 c8 -14 251 -376 520 -775 67 -99 247 -367 400 -595 314
-468 383 -571 398 -585 18 -18 -4 16 -108 170 -56 83 -257 382 -447 665 -189
283 -384 574 -433 645 -49 72 -140 207 -203 300 -101 152 -151 220 -127 175z"/>
<path d="M4487 4158 c-63 -101 -163 -259 -222 -353 -59 -93 -124 -197 -144
-230 -72 -116 -294 -471 -351 -560 -32 -49 -71 -113 -88 -142 -17 -29 -39 -65
-48 -80 -10 -15 -13 -23 -7 -18 6 6 34 46 61 90 109 173 189 302 232 371 25
41 137 220 250 399 422 670 444 705 436 705 -3 0 -56 -82 -119 -182z"/>
<path d="M9595 4225 c-3 -31 -5 -59 -2 -61 3 -3 8 20 12 51 3 31 5 59 2 61 -3
3 -8 -20 -12 -51z"/>
<path d="M8106 4187 c-50 -28 -86 -93 -86 -155 0 -52 35 -120 74 -146 40 -26
40 -19 0 16 -64 57 -80 127 -45 204 24 53 71 86 131 92 62 6 113 -12 144 -49
89 -106 26 -271 -112 -290 l-47 -6 40 -2 c105 -3 195 119 166 227 -31 114
-162 168 -265 109z"/>
<path d="M6947 4174 c-4 -4 -7 -81 -7 -171 l0 -163 163 2 162 3 0 165 0 165
-156 3 c-85 1 -158 -1 -162 -4z m313 -164 l0 -160 -155 0 -155 0 0 160 0 160
155 0 155 0 0 -160z"/>
<path d="M9571 4079 c-8 -41 -29 -134 -48 -208 -18 -74 -32 -135 -30 -138 10
-10 102 386 95 409 -2 6 -10 -22 -17 -63z"/>
<path d="M4760 3895 c-40 -23 -98 -90 -87 -101 2 -2 15 13 28 33 38 59 91 84
166 80 50 -2 71 -9 105 -33 49 -34 83 -88 92 -146 11 -69 -41 -154 -117 -192
-18 -9 -25 -16 -15 -16 9 0 36 15 60 33 156 118 75 354 -126 364 -51 3 -68 -1
-106 -22z"/>
<path d="M4654 3755 c-9 -37 4 -104 28 -143 21 -34 92 -92 112 -92 6 0 -2 8
-19 18 -56 34 -102 95 -109 144 -4 25 -4 58 0 72 3 14 4 26 0 26 -3 0 -8 -11
-12 -25z"/>
<path d="M9447 3597 c-242 -770 -726 -1442 -1412 -1962 -127 -96 -178 -138
-145 -119 8 4 77 54 152 111 509 384 928 882 1192 1418 46 94 101 213 121 265
51 131 137 389 133 400 -2 5 -20 -46 -41 -113z"/>
<path d="M8836 3428 c-213 -505 -594 -984 -1090 -1367 -133 -102 -147 -114
-99 -85 91 56 306 239 463 394 354 351 574 668 740 1065 22 54 39 100 37 102
-2 2 -25 -47 -51 -109z"/>
<path d="M4833 3513 c15 -2 39 -2 55 0 15 2 2 4 -28 4 -30 0 -43 -2 -27 -4z"/>
<path d="M8108 3463 c-65 -125 -128 -190 -233 -239 -27 -13 -44 -24 -36 -24 7
0 40 14 73 32 72 38 154 124 193 204 17 32 31 61 33 63 1 2 12 -1 25 -7 12 -6
54 -24 92 -39 115 -46 112 -43 90 -94 -61 -140 -184 -283 -303 -352 -122 -71
-167 -82 -346 -82 -90 0 -142 -3 -120 -7 82 -15 237 -9 311 12 185 51 352 195
449 387 29 57 36 78 28 91 -9 13 -204 102 -225 102 -3 0 -17 -21 -31 -47z"/>
<path d="M9025 3353 c-102 -239 -240 -480 -403 -702 -209 -286 -510 -577 -835
-810 -66 -47 -87 -67 -82 -80 5 -14 132 -228 142 -240 1 -2 5 -2 7 0 2 2 -29
58 -70 123 -41 66 -73 123 -72 127 2 4 57 46 123 94 435 316 770 688 1032
1145 79 138 210 417 200 427 -3 2 -21 -36 -42 -84z"/>
<path d="M7546 3203 c-15 -15 1 -18 112 -20 l117 -1 -97 8 c-54 4 -104 10
-112 13 -8 3 -17 3 -20 0z"/>
<path d="M4412 3179 c-72 -36 -108 -107 -99 -196 4 -41 13 -65 35 -91 47 -60
73 -73 143 -77 l64 -4 -55 8 c-97 15 -134 41 -165 113 -55 133 42 266 186 256
70 -5 122 -41 150 -102 43 -96 10 -197 -81 -247 -26 -14 -28 -18 -10 -13 67
18 120 94 120 173 0 64 -35 135 -82 167 -55 39 -145 44 -206 13z"/>
<path d="M7788 3193 c6 -2 18 -2 25 0 6 3 1 5 -13 5 -14 0 -19 -2 -12 -5z"/>
<path d="M7506 3077 c-14 -51 -26 -102 -26 -114 0 -20 18 -34 43 -32 7 0 2 4
-10 9 -29 12 -29 21 2 132 15 50 24 92 22 94 -2 3 -16 -37 -31 -89z"/>
<path d="M5553 2820 c-37 -22 -58 -52 -67 -95 -4 -22 1 -16 19 21 33 66 72 89
144 82 31 -3 47 -2 39 3 -24 16 -102 10 -135 -11z"/>
<path d="M5733 2793 c16 -17 35 -50 42 -74 8 -24 14 -36 14 -27 2 33 -31 97
-57 114 l-27 17 28 -30z"/>
<path d="M3567 2691 c-48 -73 -75 -122 -60 -106 5 6 30 42 55 80 58 90 60 95
54 95 -3 0 -25 -31 -49 -69z"/>
<path d="M5490 2669 c0 -9 10 -31 23 -50 30 -44 100 -74 152 -65 42 8 101 59
110 96 5 22 4 22 -11 -5 -26 -47 -44 -63 -81 -76 -67 -22 -149 17 -179 86 -7
16 -13 23 -14 14z"/>
<path d="M5150 2569 c-46 -58 -146 -127 -209 -146 -109 -31 -233 -16 -355 43
-76 38 -78 37 -118 -24 -14 -20 -42 -63 -63 -95 -38 -56 -38 -58 -20 -75 16
-14 17 -14 7 0 -11 13 -4 30 44 105 31 48 63 93 71 99 11 9 29 4 81 -21 96
-48 205 -68 289 -55 36 6 81 17 100 25 54 23 149 93 175 131 l25 35 92 -97
c50 -53 90 -102 88 -108 -7 -23 -145 -129 -207 -161 -97 -48 -165 -68 -265
-75 -88 -7 -89 -7 -23 -8 96 -3 160 13 273 68 70 34 120 66 168 110 37 34 67
67 67 74 0 6 -21 32 -46 56 -26 25 -68 71 -94 102 l-48 56 -32 -39z"/>
<path d="M3435 2479 c-31 -50 -54 -93 -52 -95 2 -3 24 28 47 68 24 40 50 83
58 96 8 12 12 22 9 22 -3 0 -31 -41 -62 -91z"/>
<path d="M6390 2354 c-50 -36 -51 -40 -2 -14 23 13 42 27 42 32 0 10 1 11 -40
-18z"/>
<path d="M3380 2367 c0 -8 153 -99 238 -141 93 -47 342 -148 354 -144 6 2 -41
23 -104 48 -177 68 -295 126 -450 219 -21 13 -38 21 -38 18z"/>
<path d="M6255 2280 c-73 -42 -83 -55 -14 -20 58 30 106 60 94 60 -5 -1 -41
-19 -80 -40z"/>
<path d="M4410 2257 c0 -11 107 -65 170 -87 38 -13 96 -24 140 -26 l75 -3 -75
9 c-85 9 -197 45 -264 85 -25 15 -46 25 -46 22z"/>
<path d="M6038 2182 c-70 -31 -125 -58 -123 -60 4 -4 207 81 245 103 51 29 2
12 -122 -43z"/>
<path d="M6475 2154 c-96 -55 -262 -138 -362 -179 -51 -22 -91 -41 -89 -43 10
-9 306 128 483 224 28 16 53 27 55 24 13 -16 109 -173 134 -218 l29 -53 -25
-19 c-46 -36 -374 -196 -505 -247 -156 -61 -259 -95 -420 -140 -66 -18 -102
-30 -81 -27 65 9 309 82 440 130 142 53 554 255 582 285 18 20 18 21 -5 62
-71 127 -146 237 -160 236 -9 0 -43 -16 -76 -35z"/>
<path d="M3214 2138 c-66 -101 -144 -230 -144 -240 0 -6 30 38 66 98 37 60 74
120 84 134 24 35 32 50 27 50 -2 0 -17 -19 -33 -42z"/>
<path d="M3375 2115 c245 -131 562 -252 825 -314 150 -36 342 -64 390 -58 30
3 29 4 -12 5 -69 3 -325 48 -436 77 -253 68 -531 176 -758 296 -62 33 -116 59
-120 59 -5 0 45 -30 111 -65z"/>
<path d="M5860 2109 c-104 -42 -394 -115 -569 -145 -74 -12 -78 -13 -24 -9 65
5 161 23 303 56 92 22 330 97 330 105 0 6 -12 4 -40 -7z"/>
<path d="M4000 2072 c27 -17 281 -81 400 -101 63 -11 162 -25 220 -31 107 -11
473 -11 545 0 22 3 -61 4 -185 2 -323 -6 -556 20 -825 94 -169 47 -174 48
-155 36z"/>
<path d="M5905 1898 c-44 -16 -145 -47 -225 -68 -80 -21 -139 -39 -132 -39 38
-2 462 122 462 135 0 9 -28 1 -105 -28z"/>
<path d="M3125 1864 c55 -35 302 -159 400 -201 104 -45 246 -96 252 -90 2 3
-26 15 -64 28 -131 43 -430 181 -562 258 -62 37 -83 41 -26 5z"/>
<path d="M5498 1783 c6 -2 18 -2 25 0 6 3 1 5 -13 5 -14 0 -19 -2 -12 -5z"/>
<path d="M5295 1760 c-71 -10 -168 -20 -215 -21 l-85 -3 70 -3 c60 -4 403 32
414 43 8 7 -52 2 -184 -16z"/>
<path d="M4678 1733 c29 -2 74 -2 100 0 26 2 2 3 -53 3 -55 0 -76 -1 -47 -3z"/>
<path d="M4968 1733 c7 -3 16 -2 19 1 4 3 -2 6 -13 5 -11 0 -14 -3 -6 -6z"/>
<path d="M3822 1554 c11 -10 277 -83 380 -104 129 -27 285 -50 323 -49 17 1
-24 9 -90 19 -172 25 -313 55 -471 100 -147 42 -150 43 -142 34z"/>
<path d="M5560 1455 c-30 -7 -44 -13 -30 -13 14 0 48 6 75 13 65 16 27 17 -45
0z"/>
<path d="M5405 1428 c-27 -5 -97 -16 -155 -23 l-105 -14 91 6 c85 5 299 41
244 41 -14 0 -47 -5 -75 -10z"/>
<path d="M4588 1393 c17 -2 47 -2 65 0 17 2 3 4 -33 4 -36 0 -50 -2 -32 -4z"/>
<path d="M4803 1383 c65 -2 168 -2 230 0 62 1 9 3 -118 3 -126 0 -177 -2 -112
-3z"/>
</g>
</svg>
